<svg width="80" height="80" viewBox="0 0 80 80" fill="none" xmlns="http://www.w3.org/2000/svg">
<path d="M74.0033 45.2092C77.0604 45.6776 79.197 48.5536 78.3066 51.5155C76.5825 57.2507 73.585 62.5497 69.51 67.003C64.1693 72.8395 57.2179 76.9612 49.5346 78.847C41.8514 80.7328 33.7816 80.2979 26.3455 77.5973C18.9095 74.8967 12.4413 70.0517 7.75878 63.675C3.07632 57.2983 0.38992 49.6762 0.0393026 41.7728C-0.311315 33.8693 1.68959 26.0393 5.789 19.273C9.88841 12.5067 15.9022 7.10799 23.0699 3.75953C28.5389 1.20465 34.4922 -0.0690689 40.4805 0.0028565C43.5731 0.0400013 45.6776 2.93958 45.2092 5.99671C44.7409 9.05384 41.8683 11.0947 38.7783 11.2259C34.9994 11.3864 31.2702 12.2905 27.8103 13.9069C22.6496 16.3178 18.3197 20.2048 15.3681 25.0766C12.4165 29.9483 10.9759 35.5859 11.2283 41.2764C11.4807 46.9669 13.4149 52.4547 16.7863 57.046C20.1577 61.6372 24.8148 65.1256 30.1688 67.07C35.5227 69.0145 41.333 69.3276 46.8649 67.9699C52.3969 66.6121 57.4019 63.6444 61.2472 59.4421C63.8252 56.6248 65.8043 53.3373 67.0887 49.7797C68.1389 46.8707 70.9462 44.7409 74.0033 45.2092Z" fill="#E100A2"/>
<path d="M66.0039 62.5202C68.3418 64.5449 68.6181 68.1171 66.287 70.1496C60.8128 74.9225 54.1125 78.1393 46.8891 79.4023C37.8171 80.9884 28.4756 79.3955 20.442 74.8925C12.4083 70.3894 6.17461 63.2521 2.79338 54.6856C0.101135 47.8647 -0.65135 40.4704 0.563337 33.31C1.08061 30.2608 4.27205 28.6324 7.21926 29.5701C10.1665 30.5078 11.7361 33.6626 11.3856 36.7355C10.8534 41.4001 11.4668 46.1541 13.2112 50.5737C15.6457 56.7415 20.134 61.8804 25.9182 65.1226C31.7025 68.3648 38.4283 69.5117 44.9602 68.3696C49.6406 67.5513 54.0159 65.5937 57.7173 62.7055C60.1557 60.8029 63.6659 60.4955 66.0039 62.5202Z" fill="#64009F"/>
<path d="M49.7194 55.2191C51.1462 57.4534 54.1607 58.138 56.0484 56.2768C58.1009 54.2532 59.7626 51.8492 60.9321 49.1833C62.7483 45.0435 63.2961 40.458 62.5062 36.0068C61.7164 31.5557 59.6243 27.4387 56.4946 24.1765C53.365 20.9143 49.3382 18.6534 44.9236 17.6797C40.509 16.7061 35.9048 17.0634 31.6932 18.7065C27.4816 20.3495 23.8519 23.2046 21.263 26.9105C18.674 30.6165 17.2422 35.007 17.1485 39.5267C17.0881 42.4372 17.5844 45.3172 18.5952 48.0164C19.5249 50.499 22.5478 51.1459 24.782 49.7191C27.0163 48.2923 27.5674 45.3101 27.0245 42.7154C26.8199 41.7375 26.7255 40.7348 26.7464 39.7257C26.8007 37.1042 27.6312 34.5578 29.1328 32.4083C30.6344 30.2588 32.7396 28.6029 35.1823 27.6499C37.625 26.697 40.2955 26.4897 42.856 27.0544C45.4164 27.6192 47.752 28.9305 49.5672 30.8225C51.3824 32.7146 52.5958 35.1025 53.0539 37.6842C53.512 40.2658 53.1943 42.9254 52.1409 45.3265C51.7354 46.2508 51.2279 47.1208 50.631 47.9218C49.047 50.0475 48.2926 52.9849 49.7194 55.2191Z" fill="#FF0040"/>
<path d="M57.8684 42.6089C60.4916 42.9919 62.9818 41.1603 62.8095 38.5149C62.6399 35.9109 62.0248 33.3431 60.9795 30.9264C59.2955 27.033 56.5613 23.6851 53.0828 21.2573C49.6044 18.8294 45.5189 17.4174 41.2837 17.1793C38.6547 17.0315 36.0323 17.3397 33.5295 18.0785C30.987 18.829 30.1265 21.7981 31.3906 24.1283C32.6546 26.4585 35.59 27.2206 38.2168 26.8639C39.0508 26.7506 39.8972 26.7166 40.7448 26.7642C43.2013 26.9023 45.5708 27.7213 47.5883 29.1294C49.6058 30.5376 51.1917 32.4793 52.1684 34.7375C52.5054 35.5167 52.7653 36.3229 52.9466 37.1448C53.5176 39.7335 55.2453 42.226 57.8684 42.6089Z" fill="#FD9F00"/>
</svg>
