<svg width="120" height="120" viewBox="0 0 120 120" fill="none" xmlns="http://www.w3.org/2000/svg">
<circle cx="60" cy="60" r="60" fill="#FEF7FF"/>
<path d="M102.504 66.5115C106.326 67.097 108.996 70.692 107.883 74.3944C105.728 81.5634 101.981 88.1871 96.8875 93.7537C90.2117 101.049 81.5223 106.202 71.9183 108.559C62.3143 110.916 52.2269 110.372 42.9319 106.997C33.6368 103.621 25.5516 97.5646 19.6985 89.5937C13.8454 81.6228 10.4874 72.0953 10.0491 62.2159C9.61086 52.3366 12.112 42.5491 17.2363 34.0913C22.3605 25.6334 29.8778 18.885 38.8374 14.6994C45.6736 11.5058 53.1152 9.91366 60.6006 10.0036C64.4663 10.05 67.097 13.6745 66.5115 17.4959V17.4959C65.9261 21.3173 62.3354 23.8684 58.4729 24.0324C53.7493 24.233 49.0878 25.3632 44.7629 27.3836C38.312 30.3972 32.8996 35.256 29.2101 41.3457C25.5206 47.4354 23.7198 54.4823 24.0354 61.5955C24.3509 68.7086 26.7687 75.5684 30.9829 81.3075C35.1971 87.0465 41.0185 91.407 47.711 93.8375C54.4034 96.2681 61.6663 96.6595 68.5812 94.9623C75.4961 93.2651 81.7524 89.5555 86.559 84.3027C89.7815 80.781 92.2554 76.6716 93.8609 72.2247C95.1737 68.5884 98.6827 65.9261 102.504 66.5115V66.5115Z" fill="#E100A2"/>
<path d="M92.5048 88.1503C95.4272 90.6812 95.7727 95.1464 92.8587 97.6871C86.016 103.653 77.6407 107.674 68.6114 109.253C57.2714 111.236 45.5946 109.244 35.5525 103.616C25.5104 97.9868 17.7183 89.0651 13.4917 78.357C10.1264 69.8309 9.18581 60.5881 10.7042 51.6376C11.3508 47.826 15.3401 45.7905 19.0241 46.9626V46.9626C22.7081 48.1348 24.6701 52.0783 24.232 55.9194C23.5668 61.7502 24.3335 67.6926 26.514 73.2171C29.5571 80.9269 35.1675 87.3505 42.3978 91.4032C49.6281 95.456 58.0354 96.8896 66.2002 95.4621C72.0507 94.4392 77.5199 91.9921 82.1466 88.3819C85.1946 86.0036 89.5824 85.6194 92.5048 88.1503V88.1503Z" fill="#64009F"/>
<path d="M72.1485 79.0233C73.932 81.8162 77.7001 82.672 80.0598 80.3455C82.6253 77.8159 84.7025 74.8109 86.1644 71.4786C88.4347 66.3038 89.1194 60.572 88.1321 55.008C87.1448 49.444 84.5297 44.2978 80.6176 40.22C76.7055 36.1423 71.672 33.3162 66.1537 32.0991C60.6355 30.8821 54.8802 31.3287 49.6158 33.3825C44.3513 35.4364 39.8141 39.0052 36.578 43.6376C33.3418 48.2701 31.552 53.7582 31.4348 59.4079C31.3594 63.046 31.9798 66.6459 33.2433 70.02C34.4054 73.1233 38.184 73.9319 40.9768 72.1484V72.1484C43.7696 70.3649 44.4585 66.6371 43.7799 63.3937C43.5242 62.1714 43.4061 60.9179 43.4323 59.6566C43.5002 56.3797 44.5383 53.1967 46.4153 50.5098C48.2923 47.823 50.9238 45.7531 53.9772 44.5619C57.0306 43.3706 60.3686 43.1116 63.5692 43.8175C66.7698 44.5234 69.6892 46.1625 71.9583 48.5276C74.2273 50.8927 75.744 53.8775 76.3167 57.1046C76.8893 60.3317 76.4922 63.6562 75.1754 66.6576C74.6686 67.8129 74.0342 68.9004 73.288 69.9017C71.308 72.5588 70.365 76.2305 72.1485 79.0233V79.0233Z" fill="#FF0040"/>
<path d="M82.3348 63.2606C85.6138 63.7393 88.7265 61.4498 88.5112 58.1431C88.2991 54.8881 87.5303 51.6784 86.2236 48.6574C84.1186 43.7907 80.7009 39.6058 76.3528 36.571C72.0047 33.5362 66.8979 31.7713 61.6038 31.4736C58.3176 31.2889 55.0397 31.6741 51.9112 32.5975C48.7331 33.5357 47.6574 37.2471 49.2375 40.1598V40.1598C50.8175 43.0725 54.4867 44.0252 57.7703 43.5793C58.8128 43.4377 59.8708 43.3952 60.9303 43.4547C64.0008 43.6273 66.9628 44.651 69.4847 46.4112C72.0066 48.1714 73.9889 50.5986 75.2098 53.4213C75.631 54.3953 75.9559 55.4031 76.1825 56.4304C76.8963 59.6663 79.0559 62.7819 82.3348 63.2606V63.2606Z" fill="#FD9F00"/>
</svg>
