<svg width="100" height="100" viewBox="0 0 100 100" fill="none" xmlns="http://www.w3.org/2000/svg">
<circle cx="50" cy="50" r="50" fill="#FEF7FF"/>
<path d="M92.5041 56.5115C96.3255 57.097 98.9962 60.692 97.8833 64.3944C95.7281 71.5634 91.9812 78.1871 86.8875 83.7537C80.2117 91.0494 71.5223 96.2016 61.9183 98.5588C52.3143 100.916 42.2269 100.372 32.9319 96.9966C23.6368 93.6208 15.5516 87.5646 9.69848 79.5937C3.8454 71.6228 0.4874 62.0953 0.0491282 52.2159C-0.389144 42.3366 2.11199 32.5491 7.23626 24.0913C12.3605 15.6334 19.8778 8.88499 28.8374 4.69942C35.6736 1.50581 43.1152 -0.0863369 50.6006 0.00357069C54.4663 0.050002 57.097 3.67448 56.5115 7.49589V7.49589C55.9261 11.3173 52.3354 13.8684 48.4729 14.0324C43.7493 14.233 39.0878 15.3632 34.7629 17.3836C28.312 20.3972 22.8996 25.256 19.2101 31.3457C15.5206 37.4354 13.7198 44.4823 14.0354 51.5955C14.3509 58.7086 16.7687 65.5684 20.9829 71.3075C25.1971 77.0465 31.0185 81.407 37.711 83.8375C44.4034 86.2681 51.6663 86.6595 58.5812 84.9623C65.4961 83.2651 71.7524 79.5555 76.559 74.3027C79.7815 70.781 82.2554 66.6716 83.8609 62.2247C85.1737 58.5884 88.6827 55.9261 92.5041 56.5115V56.5115Z" fill="#E100A2"/>
<path d="M82.5048 78.1503C85.4272 80.6812 85.7727 85.1464 82.8587 87.6871C76.016 93.6531 67.6407 97.6742 58.6114 99.2529C47.2714 101.236 35.5946 99.2444 25.5525 93.6156C15.5104 87.9868 7.71826 79.0651 3.49173 68.357C0.126419 59.8309 -0.814188 50.5881 0.704171 41.6376C1.35076 37.826 5.34006 35.7905 9.02407 36.9626V36.9626C12.7081 38.1348 14.6701 42.0783 14.232 45.9194C13.5668 51.7502 14.3335 57.6926 16.514 63.2171C19.5571 70.9269 25.1675 77.3505 32.3978 81.4032C39.6281 85.456 48.0354 86.8896 56.2002 85.4621C62.0507 84.4392 67.5199 81.9921 72.1466 78.3819C75.1946 76.0036 79.5824 75.6194 82.5048 78.1503V78.1503Z" fill="#64009F"/>
<path d="M62.1485 69.0233C63.932 71.8162 67.7001 72.672 70.0598 70.3455C72.6253 67.8159 74.7025 64.8109 76.1644 61.4786C78.4347 56.3038 79.1194 50.572 78.1321 45.008C77.1448 39.444 74.5297 34.2978 70.6176 30.22C66.7055 26.1423 61.672 23.3162 56.1537 22.0991C50.6355 20.8821 44.8802 21.3287 39.6158 23.3825C34.3513 25.4364 29.8141 29.0052 26.578 33.6376C23.3418 38.2701 21.552 43.7582 21.4348 49.4079C21.3594 53.046 21.9798 56.6459 23.2433 60.02C24.4054 63.1233 28.184 63.9319 30.9768 62.1484V62.1484C33.7696 60.3649 34.4585 56.6371 33.7799 53.3937C33.5242 52.1714 33.4061 50.9179 33.4323 49.6566C33.5002 46.3797 34.5383 43.1967 36.4153 40.5098C38.2923 37.823 40.9238 35.7531 43.9772 34.5619C47.0306 33.3706 50.3686 33.1116 53.5692 33.8175C56.7698 34.5234 59.6892 36.1625 61.9583 38.5276C64.2273 40.8927 65.744 43.8775 66.3167 47.1046C66.8893 50.3317 66.4922 53.6562 65.1754 56.6576C64.6686 57.8129 64.0342 58.9004 63.288 59.9017C61.308 62.5588 60.365 66.2305 62.1485 69.0233V69.0233Z" fill="#FF0040"/>
<path d="M72.3348 53.2606C75.6138 53.7393 78.7265 51.4498 78.5112 48.1431C78.2991 44.8881 77.5303 41.6784 76.2236 38.6574C74.1186 33.7907 70.7009 29.6058 66.3528 26.571C62.0047 23.5362 56.8979 21.7713 51.6038 21.4736C48.3176 21.2889 45.0397 21.6741 41.9112 22.5975C38.7331 23.5357 37.6574 27.2471 39.2375 30.1598V30.1598C40.8175 33.0725 44.4867 34.0252 47.7703 33.5793C48.8128 33.4377 49.8708 33.3952 50.9303 33.4547C54.0008 33.6273 56.9628 34.651 59.4847 36.4112C62.0066 38.1714 63.9889 40.5986 65.2098 43.4213C65.631 44.3953 65.9559 45.4031 66.1825 46.4304C66.8963 49.6663 69.0559 52.7819 72.3348 53.2606V53.2606Z" fill="#FD9F00"/>
</svg>
